<svg xmlns="http://www.w3.org/2000/svg" width="3.75in" height="2.25in" viewBox="0 0 3.75 2.25">
  <rect width="3.75" height="2.25" fill="#ffffff"/>

  <svg x="0.30" y="0.28" width="0.5" height="0.5" viewBox="0 0 512 512">
  <defs>
    <linearGradient id="bg" x1="0" y1="0" x2="1" y2="1">
      <stop offset="0" stop-color="#1e3a8a"/>
      <stop offset="1" stop-color="#172554"/>
    </linearGradient>
  </defs>
  <rect width="512" height="512" rx="112" fill="url(#bg)"/>
  <rect x="52" y="52" width="150" height="150" rx="26" fill="#3b5bd6" opacity="0.85"/>
  <rect x="310" y="52" width="150" height="150" rx="26" fill="#3b5bd6" opacity="0.55"/>
  <rect x="52" y="310" width="150" height="150" rx="26" fill="#3b5bd6" opacity="0.55"/>
  <rect x="310" y="310" width="150" height="150" rx="26" fill="#3b5bd6" opacity="0.85"/>
  <path d="M120 400 H244 a24 24 0 0 0 24 -24 V136 a24 24 0 0 1 24 -24 H392"
        fill="none" stroke="#0b1b45" stroke-width="58" stroke-linecap="round" opacity="0.35"/>
  <path d="M120 400 H244 a24 24 0 0 0 24 -24 V136 a24 24 0 0 1 24 -24 H392"
        fill="none" stroke="#f59e0b" stroke-width="44" stroke-linecap="round"/>
  <circle cx="120" cy="400" r="34" fill="#f8fafc"/>
  <circle cx="120" cy="400" r="16" fill="#f59e0b"/>
  <circle cx="392" cy="112" r="34" fill="#f8fafc"/>
  <circle cx="392" cy="112" r="16" fill="#1e40af"/>

  </svg>

  <text x="0.92" y="0.50" font-family="-apple-system, Helvetica, Arial, sans-serif" font-size="0.24" font-weight="700" fill="#14213d">SkyMap</text>
  <text x="0.92" y="0.68" font-family="-apple-system, Helvetica, Arial, sans-serif" font-size="0.10" fill="#58627a" letter-spacing="0.01">MINNEAPOLIS SKYWAY NAVIGATOR</text>

  <text x="0.30" y="1.10" font-family="-apple-system, Helvetica, Arial, sans-serif" font-size="0.145" font-weight="600" fill="#14213d">Never get turned around</text>
  <text x="0.30" y="1.28" font-family="-apple-system, Helvetica, Arial, sans-serif" font-size="0.145" font-weight="600" fill="#14213d">in the Skyway again.</text>

  <rect x="0.30" y="1.45" width="0.55" height="0.035" rx="0.0175" fill="#f59e0b"/>

  <text x="0.30" y="1.90" font-family="-apple-system, Helvetica, Arial, sans-serif" font-size="0.105" font-weight="600" fill="#2258e6">skymap-alpha.vercel.app</text>
  <text x="0.30" y="2.03" font-family="-apple-system, Helvetica, Arial, sans-serif" font-size="0.085" fill="#58627a">Free &#8226; No account needed &#8226; No ads</text>
</svg>
